<svg width="153" height="87"><defs id="SvgjsDefs1942"></defs><g id="SvgjsG1943" featurekey="root" fill="#ff9800" transform="matrix(1,0,0,1,0,0)"></g><g id="SvgjsG1944" featurekey="text1" fill="#ffffff" transform="matrix(3.3530067257081684,0,0,3.3530067257081684,-1.0588797612462282,-22.470517182920723)"><path d="M6.2947 16.3158 q-1.410526316 0 -2.4 0.9894736842 t-0.98947 2.4 t0.98947 2.4 t2.4 0.98947 q1.431578947 0 2.410526316 -0.9789473684 t0.97895 -2.4105 t-0.97895 -2.4105 t-2.4105 -0.97895 z M1.7474 10.842 l-1.4316 0 l0.63158 -1.1579 l1.9579 0 l0 6.9895 q1.368421053 -1.515789474 3.389473684 -1.515789474 q1.894736842 0 3.221052632 1.326315789 t1.3263 3.2211 q0 1.852631579 -1.326315789 3.2 t-3.2211 1.3474 q-1.915789474 0 -3.284210526 -1.410526316 l-1.2632 1.1579 l0 -13.158 z M11.789474736842104 15.3895 l1.1579 0 l0 8.6105 l-1.1579 0 l0 -8.6105 z M11.789474736842104 12.021 l1.1579 0 l0 1.2632 l-1.1579 0 l0 -1.2632 z M14.210527368421051 24 l0 -14.316 l1.1579 0 l0 14.316 l-1.1579 0 z M17.3263 22.1684 q0.4210526316 0.8421052632 1.389473684 0.8421052632 q0.6526315789 0 1.094736842 -0.4421052632 t0.44211 -1.0947 q0 -0.5263157895 -0.3052631579 -0.9368421053 t-0.76842 -0.53684 l-1.0105 -0.29474 q-0.7578947368 -0.2315789474 -1.221052632 -0.8315789474 t-0.46316 -1.3579 q0 -0.9473684211 0.6631578947 -1.610526316 t1.6105 -0.66316 q0.6736842105 0 1.252631579 0.3789473684 t0.83158 1.0105 l-1.0526 0.44211 q-0.2526315789 -0.6736842105 -1.031578947 -0.6736842105 q-0.4842105263 0 -0.8 0.3368421053 t-0.31579 0.77895 q0 0.8421052632 0.8210526316 1.073684211 l1.0105 0.29474 q0.8631578947 0.2315789474 1.4 0.9473684211 t0.53684 1.6421 q0 0.7578947368 -0.3578947368 1.368421053 t-0.96842 0.96842 t-1.3684 0.35789 t-1.3895 -0.38947 t-1.0105 -1.0632 z M29.87371578947368 22.8421 q-1.368421053 1.410526316 -3.284210526 1.410526316 q-1.852631579 0 -3.2 -1.347368421 t-1.3474 -3.2 q0 -1.894736842 1.347368421 -3.221052632 t3.2 -1.3263 q1.915789474 0 3.284210526 1.410526316 l1.2632 -1.1789 l0 8.6105 z M26.58951578947368 16.3158 q-1.431578947 0 -2.410526316 0.9789473684 t-0.97895 2.4105 t0.97895 2.4105 t2.4105 0.97895 q1.410526316 0 2.4 -0.9894736842 t0.98947 -2.4 t-0.98947 -2.4 t-2.4 -0.98947 z M33.663121052631574 16.5684 l-1.5789 0 l0 -1.1579 l1.5789 0 l0 -2.5895 q0 -0.8631578947 0.4210526316 -1.578947368 t1.1368 -1.1368 t1.5789 -0.42105 q1.010526316 0 1.852631579 0.6105263158 l-0.77895 0.86316 q-0.4631578947 -0.3157894737 -1.073684211 -0.3157894737 q-0.8210526316 0 -1.4 0.5789473684 t-0.57895 1.4 l0 2.5895 l1.5579 0 l0 1.1579 l-1.5579 0 l0 7.4316 l-1.1579 0 l0 -7.4316 z M44.86312631578947 21.2842 l1.0105 0.56842 q-0.5684210526 1.073684211 -1.642105263 1.736842105 t-2.3579 0.66316 q-1.852631579 0 -3.2 -1.347368421 t-1.3474 -3.2 q0 -1.894736842 1.347368421 -3.221052632 t3.2 -1.3263 q1.178947368 0 2.221052632 0.5894736842 t1.6105 1.4947 l-5.8737 5.1789 q0.8842105263 0.6736842105 2.042105263 0.6736842105 q0.9684210526 0 1.757894737 -0.4842105263 t1.2316 -1.3263 z M39.05262631578947 21.6 l5.0316 -4.4632 q-0.9473684211 -0.8210526316 -2.210526316 -0.8210526316 q-1.431578947 0 -2.410526316 0.9789473684 t-0.97895 2.4105 q0 1.031578947 0.5684210526 1.894736842 z"></path></g><g id="SvgjsG1945" featurekey="text3" fill="#ffe674" transform="matrix(0.5408867626960928,0,0,0.5408867626960928,51.35093573001574,68.72094507228698)"><path d="M8.36 16.28 c1.68 0.4 2.98 1.84 2.98 3.68 c0 2.5 -1.6 4.04 -5.08 4.04 l-5.06 0 l0 -14 l4.96 0 c2.82 0 4.22 1.6 4.22 3.44 c0 1.4 -0.84 2.38 -2.02 2.84 z M5.98 11.94 l-2.58 0 l0 3.66 l2.58 0 c1.44 0 2.22 -0.76 2.22 -1.84 c0 -1.14 -0.78 -1.82 -2.22 -1.82 z M6.16 22.06 c2.06 0 2.98 -0.84 2.98 -2.34 c0 -1.28 -0.92 -2.32 -2.98 -2.32 l-2.76 0 l0 4.66 l2.76 0 z M22.161927082507958 10 l2.2 0 l0 8.92 c0 3.42 -2.34 5.38 -5.22 5.38 s-5.22 -1.96 -5.22 -5.38 l0 -8.92 l2.2 0 l0 8.92 c0 2.38 1.46 3.3 3.02 3.3 s3.02 -0.92 3.02 -3.3 l0 -8.92 z M29.64385416501591 10 l0 14 l-2.2 0 l0 -14 l2.2 0 z M34.925781247523865 21.96 l5.94 0 l0 2.04 l-8.14 0 l0 -14 l2.2 0 l0 11.96 z M48.06770833003182 10 c4.04 0 7.08 3.1 7.08 6.96 c0 3.94 -3.04 7.04 -7.08 7.04 l-4.52 0 l0 -14 l4.52 0 z M48.047708330031824 21.92 c3.06 0 4.86 -2.22 4.86 -4.96 c0 -2.66 -1.8 -4.88 -4.86 -4.88 l-2.3 0 l0 9.84 l2.3 0 z M60.029635412539776 21.96 l6.34 0 l0 2.04 l-6.74 0 l-1.8 0 l0 -14 l2.2 0 l6.16 0 l0 2.04 l-6.16 0 l0 3.92 l4.74 0 l0 2 l-4.74 0 l0 4 z M79.75156249504774 24 l-2.36 0 l-3.3 -4.88 l-0.24 0 l-2.5 0 l0 4.88 l-2.2 0 l0 -14 l4.7 0 c3.14 0 5.06 1.92 5.06 4.62 c0 1.96 -1.02 3.46 -2.78 4.12 z M71.35156249504774 12.04 l0 5.16 l2.4 0 c1.78 0 2.96 -0.84 2.96 -2.58 s-1.18 -2.58 -2.96 -2.58 l-2.4 0 z M86.6534895775557 9.76 c2.3 0 3.88 1.48 4.54 2.92 l-1.64 0.94 c-0.7 -1.18 -1.6 -1.9 -2.9 -1.9 s-2.22 0.76 -2.22 1.8 c0 0.98 0.62 1.58 1.96 2.08 l0.98 0.36 c2.78 1.02 4.2 2.22 4.2 4.32 c0 2.58 -2.46 4.02 -4.84 4.02 c-2.44 0 -4.4 -1.46 -5 -3.44 l1.72 -0.88 c0.5 1.28 1.58 2.32 3.28 2.32 c1.4 0 2.56 -0.74 2.56 -2 c0 -1.34 -0.9 -1.88 -2.5 -2.48 l-0.96 -0.36 c-2.1 -0.78 -3.58 -1.84 -3.58 -4.02 c0 -2.12 1.92 -3.68 4.4 -3.68 z"></path></g></svg>